<svg version="1.1" xmlns="http://www.w3.org/2000/svg" width="1024" height="1024" viewBox="0 0 1024 1024">
<path fill="#EE692A" opacity="1.000000" stroke="none" 
	d="
M178.960541,725.977722 
	C181.107681,720.653625 183.581146,715.435120 185.345215,709.987000 
	C192.794586,686.980591 200.032639,663.905823 207.622299,640.196655 
	C212.179810,626.411804 216.514404,613.302856 220.732574,600.156555 
	C225.557419,585.119324 230.278778,570.048950 235.263031,554.697510 
	C237.017685,548.833374 238.381088,543.209534 240.132614,537.709290 
	C242.639206,529.837830 245.429474,522.056763 248.355865,513.968018 
	C250.894073,506.410522 253.116669,499.103271 255.467041,491.837341 
	C262.467651,470.195557 269.518402,448.570007 276.741486,426.605835 
	C281.457123,412.219574 285.980865,398.165588 290.689636,383.817688 
	C298.569183,359.947021 306.283020,336.376587 313.941437,312.788177 
	C315.423248,308.224152 316.688507,303.589813 318.053650,298.987915 
	C319.638824,294.689941 321.556824,290.478241 322.700165,286.065765 
	C323.560669,282.744995 325.226807,282.071259 328.335663,282.095001 
	C347.248627,282.239288 366.162964,282.198639 385.997986,282.229401 
	C400.855408,282.330017 414.791656,282.420959 428.802185,282.857971 
	C430.618042,288.127625 432.359619,293.051239 434.101562,298.355682 
	C438.863129,312.841461 443.624329,326.946411 448.284973,341.446899 
	C444.956940,355.869568 441.729492,369.896606 438.316193,384.229553 
	C435.110809,398.366974 432.091248,412.198517 428.896790,426.351135 
	C428.498932,428.114685 428.275940,429.557190 427.838409,431.307861 
	C424.872894,444.101746 422.121887,456.587524 419.223633,469.448792 
	C417.395050,477.210571 415.713684,484.596863 413.762207,492.193115 
	C413.276337,494.268188 413.060547,496.133301 412.855713,498.338379 
	C412.709167,499.097626 412.551666,499.516937 412.092499,500.079681 
	C411.159851,502.397858 410.528320,504.572449 409.898102,506.747437 
	C408.751556,510.704163 407.439178,514.482178 402.054352,513.611206 
	C401.535767,511.850800 401.098206,510.450592 400.653595,508.678528 
	C396.416534,494.569489 392.186493,480.832275 387.993958,466.692505 
	C389.700836,461.235077 390.142242,456.028290 387.761169,451.240723 
	C386.684631,449.076172 383.996155,447.713287 381.890076,445.642761 
	C380.585083,442.001099 379.428986,438.703369 378.272888,435.405670 
	C377.846588,435.401520 377.420288,435.397400 376.993988,435.393250 
	C373.771973,446.578217 370.549957,457.763184 367.143921,469.289734 
	C362.769806,483.670013 358.579712,497.708649 354.207947,512.049438 
	C349.058868,528.574463 344.091492,544.797363 338.917084,561.274536 
	C339.170197,562.530334 339.630280,563.531799 340.468262,564.612671 
	C341.869507,564.648254 342.892883,564.604309 344.378510,564.674011 
	C358.595551,564.652344 372.350311,564.517151 386.539185,564.519287 
	C390.559174,564.656677 394.145081,564.656677 398.055145,564.656677 
	C397.398193,568.801697 396.887451,572.024170 396.281189,575.849365 
	C417.678040,575.849365 438.599152,575.849365 459.773590,575.849365 
	C455.186920,597.919800 450.720276,619.412537 446.111145,641.139526 
	C445.937469,641.916687 445.906281,642.459656 445.697510,643.299927 
	C445.348602,644.726196 445.177277,645.855225 444.792328,647.287354 
	C444.184662,650.061768 443.790558,652.533081 443.258087,655.363708 
	C443.090271,656.486511 443.060852,657.250000 442.812805,658.281311 
	C442.375763,659.687805 442.157288,660.826538 441.969971,661.978760 
	C442.001160,661.992310 441.964111,661.935303 441.504333,661.971497 
	C437.018158,662.094543 432.991791,662.181396 428.508728,662.168579 
	C414.382263,662.155518 400.712494,662.242188 386.613220,662.216614 
	C384.126801,662.179565 382.069855,662.254700 379.604126,662.217285 
	C377.793274,662.180542 376.391174,662.256287 374.532410,662.223328 
	C364.035126,662.169983 353.994568,662.225403 343.499207,662.175598 
	C335.387146,662.043701 327.729675,662.038330 320.072571,661.985168 
	C309.733826,661.913391 309.733948,661.897644 305.805481,671.196045 
	C305.502258,671.822388 305.456085,672.243958 305.466827,672.895386 
	C305.485718,673.449158 305.359772,673.734131 304.849823,674.182739 
	C303.105438,677.517517 301.463989,680.576782 300.248993,683.796997 
	C297.719757,690.500610 295.348450,697.267151 293.110535,704.072998 
	C292.847046,704.874268 293.825928,706.084167 294.163391,707.416382 
	C294.042175,708.149109 293.986481,708.570068 293.717163,709.149536 
	C293.377258,709.630554 293.251038,709.953247 293.113708,710.563293 
	C293.054657,711.231018 293.006744,711.611389 292.738831,712.152100 
	C292.392365,712.643555 292.265930,712.974609 292.124695,713.713135 
	C291.778931,716.263611 291.447998,718.406555 291.013733,720.525757 
	C290.910370,720.502136 291.086487,720.578186 290.862549,721.036011 
	C290.487335,722.152039 290.336060,722.810181 289.957550,723.640625 
	C289.607056,724.552429 289.483795,725.291870 289.186798,726.372742 
	C287.746613,731.166443 286.480133,735.618835 284.990112,740.307190 
	C284.544830,741.373779 284.323090,742.204407 283.632568,743.121643 
	C274.756195,743.302734 266.348602,743.397156 257.488098,743.386597 
	C243.376358,743.381348 229.717514,743.480957 215.608765,743.434143 
	C205.781494,743.393677 196.404129,743.499634 186.602631,743.465210 
	C184.110825,743.423279 182.043167,743.521606 179.562134,743.497314 
	C177.712036,743.255859 176.275299,743.137146 174.942078,742.648193 
	C176.267181,737.841797 177.488754,733.405640 178.867203,728.613159 
	C179.002899,727.497131 178.981720,726.737427 178.960541,725.977722 
z"/>
<path fill="#E77A45" opacity="1.000000" stroke="none" 
	d="
M300.885620,689.923645 
	C298.891968,695.581238 296.898346,701.238831 294.566772,707.000549 
	C293.825928,706.084167 292.847046,704.874268 293.110535,704.072998 
	C295.348450,697.267151 297.719757,690.500610 300.248993,683.796997 
	C301.463989,680.576782 303.105438,677.517517 304.849823,674.182739 
	C304.988922,675.020752 304.831970,676.061401 304.422760,677.746704 
	C303.995209,679.206116 303.819916,680.020874 303.644653,680.835571 
	C303.452026,681.362305 303.259399,681.889038 302.880829,682.999390 
	C302.091797,685.696594 301.488739,687.810120 300.885620,689.923645 
z"/>
<path fill="#E77A45" opacity="1.000000" stroke="none" 
	d="
M412.092468,500.079681 
	C411.869354,502.940063 411.344543,505.943909 410.823486,509.327637 
	C409.416931,514.657532 408.006622,519.607544 406.306763,525.573792 
	C404.673431,521.295837 403.415985,518.002441 402.146973,514.340210 
	C407.439178,514.482178 408.751556,510.704163 409.898102,506.747437 
	C410.528320,504.572449 411.159851,502.397858 412.092468,500.079681 
z"/>
<path fill="#E77A45" opacity="1.000000" stroke="none" 
	d="
M387.993958,466.692505 
	C385.956543,460.319397 383.956573,453.543732 381.997803,446.377380 
	C383.996155,447.713287 386.684631,449.076172 387.761169,451.240723 
	C390.142242,456.028290 389.700836,461.235077 387.993958,466.692505 
z"/>
<path fill="#E77A45" opacity="1.000000" stroke="none" 
	d="
M413.762207,492.193115 
	C413.752625,493.759674 413.472961,495.536255 413.018982,497.655609 
	C413.060547,496.133301 413.276337,494.268188 413.762207,492.193115 
z"/>
<path fill="#E77A45" opacity="1.000000" stroke="none" 
	d="
M292.738831,712.152100 
	C292.868225,712.348511 292.777618,712.705383 292.413269,713.183899 
	C292.265930,712.974609 292.392365,712.643555 292.738831,712.152100 
z"/>
<path fill="#E77A45" opacity="1.000000" stroke="none" 
	d="
M293.717163,709.149536 
	C293.841644,709.340393 293.752472,709.689758 293.394073,710.157471 
	C293.251038,709.953247 293.377258,709.630554 293.717163,709.149536 
z"/>
<path fill="#E77A45" opacity="1.000000" stroke="none" 
	d="
M305.805481,671.196045 
	C306.000244,671.403870 305.937897,671.816528 305.642761,672.447388 
	C305.456085,672.243958 305.502258,671.822388 305.805481,671.196045 
z"/>
<path fill="#EE6A2A" opacity="1.000000" stroke="none" 
	d="
M470.920380,652.835632 
	C471.832306,648.260864 472.744232,643.686035 473.661926,638.688171 
	C473.808105,637.722107 473.948517,637.179138 474.205933,636.241699 
	C474.502563,635.600769 474.481476,635.373047 474.259644,635.164001 
	C474.504181,634.374878 474.748688,633.585754 475.158325,632.229614 
	C475.208984,631.117310 475.094513,630.571960 474.980103,630.026611 
	C477.473785,619.329895 479.967438,608.633118 482.626984,597.185303 
	C485.528107,583.952942 488.263336,571.471619 490.998535,558.990295 
	C491.161438,557.409607 491.324341,555.828857 491.946594,553.891113 
	C492.479645,553.026306 492.553375,552.518494 492.627106,552.010742 
	C492.754883,551.574646 492.882660,551.138611 493.195709,550.108337 
	C492.626404,549.097900 491.872192,548.318970 491.117218,548.318237 
	C471.048553,548.299683 450.979858,548.361206 430.911133,548.409180 
	C430.731018,548.330078 430.550873,548.250977 430.026978,547.850464 
	C429.583069,547.379089 429.482910,547.229065 429.382782,547.079041 
	C429.611084,545.019348 429.839355,542.959595 429.971619,540.460754 
	C429.983551,539.613647 430.091461,539.205627 430.576599,538.367676 
	C432.903290,529.292114 434.852783,520.646484 436.948242,511.630798 
	C440.330017,496.511993 443.565857,481.763336 446.801697,467.014679 
	C449.533112,454.937256 452.264496,442.859833 455.127686,430.284912 
	C455.424896,429.563293 455.397247,429.366394 455.176605,429.196686 
	C455.432587,428.415710 455.688568,427.634705 455.926453,426.437408 
	C459.001587,412.310883 462.094849,398.600708 465.188232,384.473999 
	C465.490784,382.950043 465.793274,381.842590 466.313995,380.098877 
	C467.265289,375.962616 467.998322,372.462585 468.731354,368.962585 
	C468.857239,368.542633 468.983124,368.122681 469.335327,367.139893 
	C469.664154,365.708893 469.766663,364.840668 469.869202,363.972473 
	C474.735413,342.293976 479.601654,320.615509 484.633789,298.174927 
	C485.638977,293.535370 486.539215,289.669769 487.297028,285.776459 
	C487.836609,283.004364 489.339905,282.102386 492.160828,282.161011 
	C499.429962,282.312164 506.705627,282.147675 514.441833,282.202759 
	C528.937500,282.205017 542.970093,282.113800 557.460144,282.135620 
	C571.941101,282.183594 585.964478,282.118561 600.421265,282.139648 
	C603.366760,282.225800 605.878967,282.225800 608.810791,282.225800 
	C607.328613,286.607208 606.086853,290.278046 604.582092,294.175995 
	C602.449219,299.212463 600.579224,304.021820 598.481140,309.093323 
	C595.027588,317.373535 591.785278,325.384857 588.580322,333.411072 
	C581.863342,350.232483 575.166199,367.061768 568.251160,384.146820 
	C557.403992,410.386627 546.766541,436.367462 535.883057,462.949188 
	C543.811035,462.949188 550.418091,462.949188 557.482422,463.050629 
	C571.956726,463.128448 585.973816,463.104828 600.337463,463.171143 
	C601.832153,463.507416 602.980347,463.753784 603.957275,464.312012 
	C601.826904,468.733734 599.867798,472.843597 597.628784,477.142151 
	C591.038025,488.913422 584.727295,500.496033 578.187561,512.353516 
	C572.252502,523.266663 566.546509,533.904968 560.600342,544.719421 
	C560.250977,545.267639 560.141724,545.639709 559.791382,546.228882 
	C559.038452,547.635742 558.526611,548.825500 557.760864,550.179321 
	C557.314331,550.905396 557.121765,551.467346 556.731812,552.183594 
	C556.483826,552.497131 556.433350,552.656311 556.188965,552.992798 
	C555.711487,553.793457 555.428040,554.416870 554.909912,555.293823 
	C546.991455,569.711792 539.307678,583.876160 531.364563,598.230774 
	C524.701782,610.274780 518.298279,622.128540 511.639160,634.201660 
	C504.058289,647.673218 496.733093,660.925415 489.002655,674.134216 
	C482.891907,675.332825 481.227539,680.292053 478.936676,684.647766 
	C477.640228,687.112732 477.754944,689.400879 480.091980,691.565796 
	C477.345123,696.605347 474.663116,701.300354 471.563904,705.999512 
	C465.064697,705.916565 462.870148,704.246155 463.131378,698.117615 
	C463.359680,692.761536 464.614563,687.400879 465.900391,682.161133 
	C466.443817,679.946716 468.302246,678.076538 469.433044,675.979797 
	C471.347839,672.429382 473.819946,669.202393 472.460968,664.528015 
	C471.376160,660.796631 471.392670,656.745056 470.920380,652.835632 
z"/>
<path fill="#E77A45" opacity="1.000000" stroke="none" 
	d="
M457.006561,718.010864 
	C458.730286,707.392151 460.454041,696.773315 462.178528,685.727173 
	C463.035919,683.444946 463.892609,681.590088 464.731659,679.365723 
	C466.630524,670.481934 468.547028,661.967834 470.691956,653.144653 
	C471.392670,656.745056 471.376160,660.796631 472.460968,664.528015 
	C473.819946,669.202393 471.347839,672.429382 469.433044,675.979797 
	C468.302246,678.076538 466.443817,679.946716 465.900391,682.161133 
	C464.614563,687.400879 463.359680,692.761536 463.131378,698.117615 
	C462.870148,704.246155 465.064697,705.916565 471.586884,706.340698 
	C471.589203,707.724060 471.151367,708.770386 470.463104,710.040771 
	C467.862701,714.271912 465.512726,718.278931 462.997681,721.963074 
	C460.890625,720.430420 458.948608,719.220642 457.006561,718.010864 
z"/>
<path fill="#E77A45" opacity="1.000000" stroke="none" 
	d="
M844.021606,425.522888 
	C844.202515,428.586090 843.270935,429.776978 840.356079,429.708557 
	C831.572144,429.502380 822.781311,429.588104 813.064697,429.564087 
	C798.404175,429.623077 784.672119,429.678070 770.505371,429.662689 
	C767.711426,429.638519 765.352295,429.684723 762.581055,429.662659 
	C760.781067,429.642365 759.393127,429.690308 757.545654,429.664856 
	C752.567627,429.665192 748.049133,429.738983 743.371094,429.448303 
	C743.055725,428.041260 742.899780,426.998657 742.809570,425.496643 
	C742.224670,414.029541 741.573975,403.021942 741.259949,392.161102 
	C744.531189,393.751160 745.249268,396.125488 745.048279,399.277832 
	C744.552856,407.046265 744.444763,414.839325 743.955139,422.608246 
	C743.694275,426.746582 745.260681,428.124054 749.406799,428.088470 
	C768.869324,427.921448 788.334595,428.088684 807.797241,427.929077 
	C810.863220,427.903931 813.938904,426.241028 816.977844,426.338623 
	C822.995911,426.531860 828.979797,427.704651 834.999451,427.956970 
	C841.987610,428.249847 842.013367,428.009613 842.017883,421.225372 
	C842.027832,406.253143 842.207214,391.277649 841.945007,376.309998 
	C841.803894,368.258514 840.277100,360.196899 840.583557,352.186066 
	C840.742554,348.028656 840.005920,345.175293 837.093811,342.581024 
	C832.418762,338.416077 827.355042,334.590576 823.223450,329.939484 
	C819.061462,325.254211 815.835999,319.736938 812.200195,314.584198 
	C821.231140,323.311066 830.262024,332.037964 839.752197,341.225128 
	C843.440125,344.077789 844.197021,347.253540 844.125183,351.215668 
	C843.926697,362.151489 844.181519,373.095520 844.257080,384.036316 
	C844.152832,397.711060 844.048645,411.385773 844.021606,425.522888 
z"/>
<path fill="#E77A45" opacity="1.000000" stroke="none" 
	d="
M482.075470,688.641235 
	C481.562439,689.618225 481.096893,690.240662 480.394104,691.042236 
	C477.754944,689.400879 477.640228,687.112732 478.936676,684.647766 
	C481.227539,680.292053 482.891907,675.332825 489.002655,674.134216 
	C486.979584,678.880676 484.551270,683.583740 482.075470,688.641235 
z"/>
<path fill="#EE692A" opacity="1.000000" stroke="none" 
	d="
M851.078613,596.494019 
	C851.100220,611.007324 851.036804,625.062866 851.072388,639.583069 
	C851.100647,648.333008 850.633179,656.640564 851.096069,664.895996 
	C851.414185,670.568359 849.976196,674.866089 845.432312,678.219666 
	C844.247314,679.094177 843.326111,680.326172 842.145996,681.696472 
	C835.643555,688.169739 829.278687,694.340576 822.493530,700.363220 
	C821.075439,700.135742 819.914917,699.683350 819.105957,700.036438 
	C812.967468,702.714783 811.447876,708.758484 808.923340,714.462280 
	C805.871643,717.950806 802.972778,721.144531 799.777344,724.284546 
	C798.689209,724.837463 797.897644,725.444031 796.722900,726.036377 
	C792.152527,728.584229 787.680847,730.789246 783.872253,733.825867 
	C781.036377,736.087097 776.612732,737.921631 777.552429,743.162720 
	C773.038147,743.350159 768.984436,743.465332 764.481079,743.467590 
	C754.701172,743.424927 745.370911,743.495178 735.591553,743.420288 
	C718.398621,743.366760 701.654724,743.458374 684.910889,743.550049 
	C671.267578,743.475647 657.624268,743.401245 643.133911,743.288452 
	C641.185181,743.316772 640.083557,743.383423 638.531067,743.337402 
	C633.720215,743.316833 629.360168,743.408813 624.573608,743.387451 
	C618.045715,744.461304 614.830750,741.546448 613.507812,735.449951 
	C612.407593,732.013916 611.380127,728.967285 610.322876,725.522400 
	C608.153442,719.092224 606.013794,713.060242 603.902466,706.732422 
	C603.653381,705.942139 603.375916,705.447632 603.094482,704.667847 
	C602.878540,703.863037 602.666504,703.343567 602.405273,702.432983 
	C600.894714,697.363708 599.433350,692.685547 598.348633,687.927856 
	C601.399109,681.665283 597.666504,671.933289 590.898987,667.769775 
	C590.617432,667.250061 590.597961,666.930908 590.733521,666.284668 
	C590.503784,665.638367 590.253174,665.311035 589.814941,664.668701 
	C583.353394,646.045471 577.079590,627.737305 570.857544,609.080811 
	C570.593079,608.159302 570.276794,607.586182 569.775940,606.802246 
	C569.460571,606.056335 569.329651,605.521118 569.453125,604.734619 
	C570.448242,599.341736 573.173584,596.341064 578.578552,596.058167 
	C584.339966,595.756653 590.093201,595.087097 595.854309,595.033508 
	C611.766907,594.885559 627.681885,594.930603 643.595337,595.018250 
	C646.029297,595.031616 648.459839,595.676208 650.993896,596.293701 
	C651.184753,596.725464 651.273743,596.892456 651.278931,597.497375 
	C651.113281,600.621582 651.031250,603.307861 650.664673,606.298218 
	C650.592407,613.071655 650.804626,619.541016 651.132935,626.290161 
	C651.280090,627.168213 651.311218,627.766541 651.297241,628.681824 
	C651.488220,629.335938 651.724243,629.672974 652.074463,630.231750 
	C652.323608,630.773376 652.343872,631.100403 652.238647,631.747070 
	C652.478088,632.376770 652.728271,632.693970 653.145264,633.236145 
	C653.610779,634.135620 653.909546,634.810181 654.237305,635.801147 
	C654.572205,636.388306 654.877991,636.659058 655.412964,637.085205 
	C656.151428,638.007141 656.660828,638.773621 657.228516,639.859619 
	C657.632812,640.409241 657.978821,640.639343 658.610535,641.032593 
	C666.384277,648.308533 675.582214,648.602783 685.523438,647.841003 
	C699.319519,647.815002 712.657898,647.706360 726.256836,647.673584 
	C726.826782,647.581604 727.136047,647.413818 727.600464,647.269592 
	C727.755615,647.293213 728.013489,647.114075 728.400208,647.131531 
	C732.764526,644.726685 736.742126,642.304382 741.013000,639.687744 
	C744.252563,634.808044 747.777405,630.385010 747.729858,624.406067 
	C747.685120,618.787354 748.163391,613.122986 747.584717,607.564819 
	C747.207703,603.942932 745.352722,600.474792 744.093384,596.598633 
	C740.185730,590.391418 734.341492,587.304626 727.863892,584.532104 
	C714.117065,577.482544 700.596985,570.683289 686.871094,563.607605 
	C679.768433,559.916321 672.871643,556.501465 665.646606,552.968262 
	C658.554871,549.220581 651.791382,545.591125 644.833618,541.679749 
	C631.298340,534.269043 617.957336,527.140137 604.559204,519.980774 
	C605.978638,516.834900 607.057922,514.442749 608.137268,512.050598 
	C614.701233,499.932526 621.265137,487.814453 627.881775,475.345154 
	C634.953796,462.401825 641.973022,449.809723 649.589478,436.146393 
	C631.131104,436.146393 613.505981,436.146393 595.421509,436.260834 
	C588.992615,436.375275 583.023010,436.375275 576.164856,436.375275 
	C577.266602,432.931824 578.095947,430.339722 578.929260,427.376495 
	C584.825012,412.892548 590.716858,398.779694 596.652222,384.313416 
	C602.110107,370.898193 607.524475,357.836426 613.137146,344.289337 
	C613.544434,343.584839 613.592529,343.334747 613.479858,343.053772 
	C613.963684,341.948792 614.447510,340.843842 614.957458,339.377380 
	C620.321167,325.928711 625.658752,312.841583 631.013794,299.380859 
	C632.932922,294.264038 634.627197,289.419464 636.865173,284.840637 
	C637.519104,283.502747 639.721558,282.921722 642.054565,282.032623 
	C656.929871,282.067383 670.964966,282.063263 685.249817,282.139404 
	C685.665894,282.165253 685.832153,282.110809 686.461182,282.139832 
	C700.611938,282.149017 714.299866,282.074738 728.447388,282.107178 
	C742.942322,282.123505 756.977661,282.033112 771.013062,281.942749 
	C779.342285,280.205475 783.651855,285.977600 788.160645,291.594269 
	C787.764343,292.570221 787.082397,293.444824 787.242554,293.644562 
	C790.817505,298.105438 794.110474,302.902252 798.291687,306.721466 
	C800.417542,308.663330 804.173706,308.820282 807.201172,309.850098 
	C807.209412,309.916077 807.168640,309.792664 807.226807,310.060394 
	C807.591980,310.497070 807.898987,310.666016 808.136108,310.887024 
	C808.066101,310.939087 808.164795,310.795258 808.223938,311.062622 
	C808.589722,311.499817 808.896362,311.669617 809.146484,311.887512 
	C809.089905,311.935638 809.149597,311.799683 809.233643,312.078613 
	C809.653381,312.523834 809.989136,312.690063 810.551880,312.899414 
	C810.778870,312.942566 811.240479,312.964508 811.240479,312.964508 
	C811.498413,313.358185 811.756348,313.751892 812.107239,314.364868 
	C815.835999,319.736938 819.061462,325.254211 823.223450,329.939484 
	C827.355042,334.590576 832.418762,338.416077 837.093811,342.581024 
	C840.005920,345.175293 840.742554,348.028656 840.583557,352.186066 
	C840.277100,360.196899 841.803894,368.258514 841.945007,376.309998 
	C842.207214,391.277649 842.027832,406.253143 842.017883,421.225372 
	C842.013367,428.009613 841.987610,428.249847 834.999451,427.956970 
	C828.979797,427.704651 822.995911,426.531860 816.977844,426.338623 
	C813.938904,426.241028 810.863220,427.903931 807.797241,427.929077 
	C788.334595,428.088684 768.869324,427.921448 749.406799,428.088470 
	C745.260681,428.124054 743.694275,426.746582 743.955139,422.608246 
	C744.444763,414.839325 744.552856,407.046265 745.048279,399.277832 
	C745.249268,396.125488 744.531189,393.751160 741.016541,391.937988 
	C740.056946,391.031403 739.677490,390.494690 739.350769,389.809509 
	C739.327087,389.422821 739.164124,389.314606 738.796143,389.018982 
	C737.097168,387.147675 735.516724,385.593750 733.795898,383.740173 
	C732.101257,382.625946 730.546936,381.811340 728.791260,380.770630 
	C728.014343,380.387970 727.438843,380.231384 726.702576,379.867798 
	C726.044373,379.613647 725.547058,379.566467 724.669800,379.362610 
	C723.201660,379.137238 722.113403,379.068512 720.662842,378.815186 
	C703.686401,378.739075 687.057739,378.497406 670.467896,379.188538 
	C666.007324,379.374390 661.665039,382.397522 656.951660,384.249481 
	C646.050171,394.283600 644.672852,416.959503 653.963684,428.509735 
	C654.162781,428.757202 654.472900,428.915466 654.854736,429.437561 
	C663.631897,434.554291 672.285461,439.348816 681.116455,444.443298 
	C695.004883,451.805084 708.701721,458.894562 722.430542,465.921356 
	C738.226257,474.006042 754.050415,482.035309 770.086304,490.354614 
	C785.200439,498.368561 800.102478,506.093781 814.963196,513.897644 
	C816.552429,514.732178 818.130005,515.818298 819.324524,517.139038 
	C829.250610,528.114014 839.124023,539.137573 848.894104,550.251282 
	C850.006775,551.516968 850.384705,553.428528 851.103271,555.040588 
	C851.066711,568.705811 851.030212,582.371094 851.078613,596.494019 
z"/>
<path fill="#E77A45" opacity="1.000000" stroke="none" 
	d="
M796.648193,298.883301 
	C800.275635,302.408905 803.605164,305.791626 807.063843,309.479218 
	C804.173706,308.820282 800.417542,308.663330 798.291687,306.721466 
	C794.110474,302.902252 790.817505,298.105438 787.242554,293.644562 
	C787.082397,293.444824 787.764343,292.570221 788.410034,291.850098 
	C791.294067,294.040344 793.822144,296.390381 796.648193,298.883301 
z"/>
<path fill="#E77A45" opacity="1.000000" stroke="none" 
	d="
M599.554932,592.862793 
	C614.029724,592.831421 628.040710,592.880737 642.947083,592.917114 
	C645.426758,592.929993 647.149170,592.584900 648.548767,593.106384 
	C649.553345,593.480652 650.126404,595.013123 650.891968,596.028870 
	C648.459839,595.676208 646.029297,595.031616 643.595337,595.018250 
	C627.681885,594.930603 611.766907,594.885559 595.854309,595.033508 
	C590.093201,595.087097 584.339966,595.756653 578.578552,596.058167 
	C573.173584,596.341064 570.448242,599.341736 569.453125,604.734619 
	C568.242065,602.530212 567.285400,600.074463 566.119568,597.326721 
	C565.713745,595.936401 565.517029,594.838074 565.177673,592.943542 
	C576.727905,592.943542 587.909546,592.943542 599.554932,592.862793 
z"/>
<path fill="#E77A45" opacity="1.000000" stroke="none" 
	d="
M551.042847,636.608032 
	C547.171875,638.301331 543.304871,639.607361 539.033081,640.868652 
	C541.131226,635.891663 543.634216,630.959473 546.137207,626.027344 
	C546.580750,626.001099 547.024292,625.974915 547.467896,625.948669 
	C548.660828,629.372742 549.853821,632.796753 551.042847,636.608032 
z"/>
<path fill="#E77A45" opacity="1.000000" stroke="none" 
	d="
M813.846802,710.014282 
	C812.368835,711.492249 811.031494,712.698792 809.385132,714.036377 
	C811.447876,708.758484 812.967468,702.714783 819.105957,700.036438 
	C819.914917,699.683350 821.075439,700.135742 822.208984,700.589722 
	C819.559082,703.890564 816.773254,706.816772 813.846802,710.014282 
z"/>
<path fill="#E77A45" opacity="1.000000" stroke="none" 
	d="
M780.963745,742.884399 
	C780.225403,743.007019 779.487122,743.129639 778.380920,743.171387 
	C776.612732,737.921631 781.036377,736.087097 783.872253,733.825867 
	C787.680847,730.789246 792.152527,728.584229 796.722900,726.036377 
	C796.799377,726.520569 796.492554,726.990601 795.767578,727.855774 
	C790.554138,733.128784 785.758972,738.006592 780.963745,742.884399 
z"/>
<path fill="#E77A45" opacity="1.000000" stroke="none" 
	d="
M598.348633,687.927856 
	C597.519714,687.064270 597.067383,686.121155 596.380127,684.956055 
	C594.432739,679.406189 592.720276,674.078308 591.017334,668.364502 
	C597.666504,671.933289 601.399109,681.665283 598.348633,687.927856 
z"/>
<path fill="#E77A45" opacity="1.000000" stroke="none" 
	d="
M650.664734,606.298218 
	C651.018860,612.356018 651.088440,618.717896 651.087402,625.545044 
	C650.804626,619.541016 650.592407,613.071655 650.664734,606.298218 
z"/>
<path fill="#E77A45" opacity="1.000000" stroke="none" 
	d="
M570.857544,609.080811 
	C570.511230,608.846069 570.216736,608.263062 569.941284,607.346558 
	C570.276794,607.586182 570.593079,608.159302 570.857544,609.080811 
z"/>
<path fill="#E77A45" opacity="1.000000" stroke="none" 
	d="
M807.226807,310.060425 
	C807.459717,309.972870 807.750854,310.153046 808.124023,310.584106 
	C807.898987,310.666016 807.591980,310.497070 807.226807,310.060425 
z"/>
<path fill="#E77A45" opacity="1.000000" stroke="none" 
	d="
M808.223938,311.062622 
	C808.455933,310.975983 808.747131,311.156708 809.120605,311.588440 
	C808.896362,311.669617 808.589722,311.499817 808.223938,311.062622 
z"/>
<path fill="#E77A45" opacity="1.000000" stroke="none" 
	d="
M809.233643,312.078613 
	C809.459595,311.985443 809.769653,312.171173 810.202271,312.606628 
	C809.989136,312.690063 809.653381,312.523834 809.233643,312.078613 
z"/>
<path fill="#E77A45" opacity="1.000000" stroke="none" 
	d="
M590.733521,666.284668 
	C590.474792,666.273010 590.236877,665.942444 590.000793,665.297791 
	C590.253174,665.311035 590.503784,665.638367 590.733521,666.284668 
z"/>
<path fill="#E77A45" opacity="1.000000" stroke="none" 
	d="
M651.297241,628.681824 
	C651.561707,628.705139 651.781067,629.045471 651.980347,629.697876 
	C651.724243,629.672974 651.488220,629.335938 651.297241,628.681824 
z"/>
<path fill="#E77A45" opacity="1.000000" stroke="none" 
	d="
M652.238647,631.747070 
	C652.488037,631.755127 652.726624,632.075745 652.971802,632.703735 
	C652.728271,632.693970 652.478088,632.376770 652.238647,631.747070 
z"/>
<path fill="#E77A45" opacity="1.000000" stroke="none" 
	d="
M657.944824,639.820801 
	C658.198242,639.927307 658.235046,640.401733 658.279907,640.635559 
	C657.978821,640.639343 657.632812,640.409241 657.228516,639.859619 
	C657.343994,639.598145 657.517700,639.656250 657.944824,639.820801 
z"/>
<path fill="#E77A45" opacity="1.000000" stroke="none" 
	d="
M654.237305,635.801147 
	C654.488342,635.768494 654.768433,636.052246 655.116150,636.632874 
	C654.877991,636.659058 654.572205,636.388306 654.237305,635.801147 
z"/>
<path fill="#E77A45" opacity="1.000000" stroke="none" 
	d="
M498.975342,742.606018 
	C493.789886,742.956482 488.560150,742.956482 482.293915,742.956482 
	C485.108856,737.765259 487.708435,732.971252 490.574097,727.954834 
	C491.579346,730.551819 492.203461,733.409424 493.121368,736.169312 
	C493.434082,737.109558 494.454102,737.835144 495.207275,738.603577 
	C496.423981,739.844910 497.687378,741.040588 498.975342,742.606018 
z"/>
<path fill="#E77A45" opacity="1.000000" stroke="none" 
	d="
M570.182007,693.865723 
	C572.627991,699.716675 574.865356,705.944031 577.113159,712.558899 
	C570.539551,711.894958 572.305664,705.557617 570.296143,701.699036 
	C569.254822,699.699585 570.022766,696.757996 570.182007,693.865723 
z"/>
<path fill="#E77A45" opacity="1.000000" stroke="none" 
	d="
M507.799133,742.791199 
	C507.556305,743.149109 507.102264,743.240662 506.312805,743.424805 
	C505.527740,743.442749 505.078094,743.368103 504.305206,743.179810 
	C505.183960,742.885864 506.385925,742.705383 507.799133,742.791199 
z"/>
</svg>